Genre:Action | Crime
Language:English
 
http://www.imdb.com/title/tt1416801/

Source:DVD


Format : MPEG-4
Format profile : Base Media
Codec ID : isom
File size : 926 MiB
Duration : 1h 42mn
Overall bit rate : 1 266 Kbps


Video
Format profile : High@L4.1
Format settings, CABAC : Yes
Format settings, ReFrames : 3 frames
Codec ID : avc1
Codec ID/Info : Advanced Video Coding
Duration : 1h 42mn
Bit rate mode : Variable
Bit rate : 828 Kbps
Maximum bit rate : 4 096 Kbps
Width : 720 pixels
Height : 392 pixels
Display aspect ratio : 16:9
Frame rate mode : Constant
Frame rate : 25.000 fps
Color space : YUV
Chroma subsampling : 4:2:0
Bit depth : 8 bits
Scan type : Progressive
Bits/(Pixel*Frame) : 0.117
Stream size : 600 MiB (65%)
Writing library : x264


Audio
ID : 2
Format : AAC
Format/Info : Advanced Audio Codec
Format version : Version 4
Format profile : LC
Format settings, SBR : No
Codec ID : 40
Duration : 1h 42mn
Bit rate mode : Variable
Bit rate : 442 Kbps
Maximum bit rate : 547 Kbps
Channel(s) : 6 channels
Channel positions : Front: L C R, Side: L R, LFE
Sampling rate : 48.0 KHz
Stream size : 323 MiB (35%)


Plot:
The true story of Danny Greene, a tough Irish thug working for mobsters in Cleveland during the 1970's.